<svg width="37" height="37" viewBox="0 0 37 37" fill="none" xmlns="http://www.w3.org/2000/svg">
<g clip-path="url(#clip0_15_224)">
<path d="M30.7493 2.96875C27.9222 2.96875 25.6885 5.23741 25.6885 8.06452C25.6885 10.8916 27.9571 13.1254 30.7493 13.1254C33.5415 13.1254 35.8451 10.8567 35.8451 8.02962C35.8451 5.20251 33.5764 2.96875 30.7493 2.96875ZM30.7493 12.0085C28.5505 12.0085 26.7705 10.2285 26.7705 8.02962C26.7705 5.83076 28.5854 4.08563 30.7493 4.08563C32.9482 4.08563 34.7282 5.86566 34.7282 8.06452C34.7282 10.2634 32.9482 12.0085 30.7493 12.0085Z" fill="#CA1119"/>
<path d="M32.3543 8.83164C32.3194 8.72694 32.3194 8.65713 32.2496 8.55242C32.2147 8.48262 32.1798 8.37791 32.11 8.30811C32.0402 8.2383 32.0053 8.1685 31.9355 8.09869C31.8657 8.02889 31.7959 7.95908 31.6912 7.92418C31.6214 7.85437 31.5167 7.81947 31.4469 7.78457C31.3422 7.74967 31.2724 7.67986 31.1676 7.64496C31.0629 7.61006 30.9582 7.57515 30.8884 7.54025C30.8535 7.54025 30.7837 7.50535 30.7488 7.47045C30.7139 7.43554 30.6441 7.43554 30.6092 7.40064C30.5743 7.36574 30.5045 7.36574 30.4696 7.33083C30.4347 7.29593 30.3998 7.26103 30.3649 7.22613C30.33 7.19122 30.2951 7.15632 30.2951 7.08652C30.2602 7.05161 30.2602 6.98181 30.2602 6.94691C30.2602 6.8771 30.2602 6.8422 30.2602 6.77239C30.2602 6.73749 30.2951 6.66769 30.2951 6.63278C30.33 6.59788 30.33 6.52808 30.3649 6.49317C30.3998 6.45827 30.4347 6.42337 30.4696 6.38847C30.5045 6.35356 30.5743 6.31866 30.6441 6.31866C30.7139 6.28376 30.7488 6.28376 30.8186 6.28376C30.8535 6.28376 30.8884 6.28376 30.9233 6.28376C30.9582 6.28376 30.9931 6.28376 31.028 6.28376C31.0978 6.28376 31.1327 6.28376 31.2026 6.31866C31.2724 6.31866 31.3422 6.35356 31.3771 6.35356C31.412 6.35356 31.4818 6.38847 31.5167 6.38847C31.5865 6.38847 31.6214 6.42337 31.6563 6.42337L31.8308 6.49317L31.8657 6.28376L31.9355 5.72532V5.58571L31.7959 5.55081C31.761 5.55081 31.6912 5.5159 31.6563 5.5159C31.6214 5.5159 31.5865 5.481 31.5167 5.481C31.4818 5.481 31.412 5.4461 31.3422 5.4461C31.2724 5.4461 31.2375 5.4112 31.1676 5.4112H31.1327V4.92256V4.74805H30.9582H30.4696H30.2951V4.92256V5.4461H30.2602C30.1555 5.481 30.0508 5.5159 29.9461 5.58571C29.8414 5.62061 29.7715 5.69042 29.7017 5.76022C29.6319 5.83003 29.5621 5.89983 29.4923 6.00454C29.4225 6.07434 29.3876 6.17905 29.3527 6.28376C29.3178 6.38847 29.2829 6.49317 29.248 6.59788C29.2131 6.70259 29.2131 6.8422 29.2131 6.94691C29.2131 7.05161 29.2131 7.12142 29.248 7.22613C29.2829 7.33083 29.2829 7.40064 29.3527 7.50535C29.3876 7.57515 29.4574 7.67986 29.4923 7.74967C29.5621 7.81947 29.597 7.88928 29.6668 7.95908C29.7366 8.02889 29.8064 8.09869 29.9112 8.13359C29.981 8.2034 30.0857 8.2383 30.1555 8.2732C30.2602 8.30811 30.3649 8.37791 30.4347 8.41281C30.5394 8.44772 30.6441 8.48262 30.7139 8.51752C30.7488 8.51752 30.8186 8.55242 30.8535 8.58733C30.8884 8.62223 30.9582 8.62223 30.9931 8.65713C31.028 8.69203 31.0629 8.72694 31.0978 8.72694C31.1327 8.76184 31.1676 8.79674 31.2026 8.83164C31.2375 8.86655 31.2375 8.90145 31.2724 8.97125C31.2724 9.00616 31.3073 9.07596 31.3073 9.14577C31.3073 9.21557 31.3073 9.25047 31.3073 9.32028C31.3073 9.35518 31.2724 9.42499 31.2375 9.45989C31.2025 9.49479 31.1676 9.5297 31.1327 9.5646C31.0978 9.5995 31.0629 9.6344 30.9931 9.6693C30.9582 9.70421 30.8884 9.70421 30.8535 9.73911C30.8186 9.73911 30.7488 9.77401 30.679 9.77401C30.6441 9.77401 30.6092 9.77401 30.5394 9.77401C30.5045 9.77401 30.4347 9.77401 30.3998 9.77401C30.33 9.77401 30.2602 9.77401 30.2253 9.77401C30.1555 9.77401 30.0857 9.73911 30.0508 9.73911C29.981 9.73911 29.9112 9.70421 29.8414 9.6693C29.7715 9.6344 29.7017 9.6344 29.6319 9.5995C29.597 9.5995 29.5621 9.5646 29.5272 9.5646C29.4923 9.5646 29.4574 9.52969 29.4225 9.52969L29.2131 9.42499L29.1782 9.6693L29.1084 10.2976V10.4023L29.2131 10.4372C29.3527 10.4023 29.4225 10.4372 29.5272 10.4721C29.597 10.507 29.7017 10.5419 29.7715 10.5419C29.8414 10.5768 29.9461 10.5768 30.0508 10.6117C30.1555 10.6466 30.2253 10.6466 30.33 10.6466H30.3998V11.1701V11.3446H30.5743H31.0629H31.2375V11.1701V10.6117H31.2724C31.3771 10.5768 31.4818 10.5419 31.5865 10.4721C31.6912 10.4372 31.761 10.3674 31.8657 10.2976C31.9355 10.2277 32.0053 10.1579 32.0751 10.0532C32.1449 9.98343 32.1798 9.87872 32.2496 9.77401C32.2845 9.6693 32.3194 9.5646 32.3543 9.45989C32.3892 9.35518 32.3892 9.25047 32.3892 9.11086C32.3892 9.00616 32.3892 8.93635 32.3543 8.83164Z" fill="#CA1119"/>
<path d="M28.3064 13.788C28.1319 13.5437 27.748 13.5088 27.5037 13.6833L21.8494 18.1857L14.5548 15.1492C14.3803 15.0794 14.1709 15.1143 14.0313 15.219L6.21311 20.8034C5.9688 20.9779 5.89899 21.3269 6.0735 21.5713C6.17821 21.7458 6.35272 21.8156 6.52724 21.8156C6.63194 21.8156 6.73665 21.7807 6.84136 21.7109L14.4152 16.301L21.7447 19.3375C21.9193 19.4073 22.1636 19.3724 22.3032 19.2677L28.2017 14.5908C28.446 14.4162 28.4809 14.0323 28.3064 13.788Z" fill="#CA1119"/>
<path d="M36.4731 32.9156H33.8904V16.7557C33.8904 16.4416 33.646 16.1973 33.3319 16.1973H28.2012C27.8871 16.1973 27.6428 16.4416 27.6428 16.7557V32.9156H25.7581V22.3401C25.7581 22.026 25.5138 21.7817 25.1996 21.7817H20.0341C19.7199 21.7817 19.4756 22.026 19.4756 22.3401V32.9156H17.5909V21.5025C17.5909 21.1883 17.3466 20.944 17.0324 20.944H11.9018C11.5876 20.944 11.3433 21.1883 11.3433 21.5025V32.9156H9.45859V24.7833C9.45859 24.4692 9.21427 24.2248 8.90015 24.2248H3.73457C3.42045 24.2248 3.17613 24.4692 3.17613 24.7833V32.9156H0.558441C0.244318 32.9156 0 33.1599 0 33.474C0 33.7881 0.244318 34.0325 0.558441 34.0325H3.69967H8.83034H11.9018H17.0324H20.0341H25.1647H28.1663H33.297H36.4382C36.7524 34.0325 36.9967 33.7881 36.9967 33.474C37.0316 33.1599 36.7873 32.9156 36.4731 32.9156ZM8.3068 32.9156H4.29301V25.3417H8.3068V32.9156ZM16.474 32.9156H12.4602V22.0609H16.474V32.9156ZM24.6063 32.9156H20.5925V22.8986H24.6063V32.9156ZM32.7735 32.9156H28.7597V17.3141H32.7735V32.9156Z" fill="#CA1119"/>
</g>
<defs>
<clipPath id="clip0_15_224">
<rect width="37" height="37" fill="white"/>
</clipPath>
</defs>
</svg>
