<svg width="34" height="40" viewBox="0 0 34 40" fill="none" xmlns="http://www.w3.org/2000/svg">
<path d="M7.08228 0.587858C6.83268 0.856658 6.88068 1.21186 7.20708 1.51906C7.37028 1.67266 7.49508 1.84546 7.49508 1.89346C7.49508 1.95106 7.37028 2.12386 7.20708 2.26786C6.89028 2.57506 6.84228 2.85346 7.07268 3.17986C7.28388 3.48706 7.70628 3.45826 8.11908 3.09346L8.46468 2.78626L8.77188 3.09346C9.21348 3.51586 9.63588 3.49666 9.88548 3.03586C10.0199 2.77666 9.91428 2.46946 9.56868 2.15266L9.31908 1.91266L9.54948 1.67266C9.93348 1.25026 10.0199 1.01986 9.87588 0.722258C9.68388 0.328658 9.15588 0.309458 8.72388 0.693458L8.38788 0.981458L8.11908 0.703058C7.79268 0.367059 7.32228 0.319058 7.08228 0.587858Z" fill="#CA1119"/>
<path d="M16.5099 4.02559C12.0171 4.83199 8.25395 8.13439 6.82355 12.5024C6.16115 14.528 6.06515 17.1584 6.57395 19.2032C7.16915 21.6128 8.13875 23.312 10.0011 25.232C11.7195 27.008 12.1707 28.0256 12.2859 30.368C12.3339 31.3856 12.4011 31.8464 12.5163 32.0576C12.6699 32.3648 13.4091 33.056 13.5627 33.056C13.6107 33.056 13.6203 33.2 13.5915 33.3728C13.5531 33.5744 13.5915 33.8336 13.6875 34.0832C13.8315 34.448 13.8315 34.5056 13.6779 34.9664C13.5435 35.3888 13.5339 35.5232 13.6395 35.8784C13.7643 36.3392 14.2059 36.8288 14.6283 36.9824C14.8683 37.0784 14.8875 37.1264 14.8875 37.616C14.8875 38.4896 15.2043 39.0656 15.8667 39.4016C16.1931 39.5648 16.4619 39.584 18.7083 39.584H21.1851L21.6267 39.3056C22.1835 38.9504 22.4715 38.384 22.4715 37.6352C22.4715 37.1936 22.5099 37.0688 22.6443 37.0208C22.9899 36.896 23.4603 36.4736 23.5851 36.1664C23.7579 35.7536 23.7579 35.1296 23.5755 34.784C23.4507 34.544 23.4507 34.4768 23.5755 34.2368C23.7963 33.824 23.7579 33.1424 23.5083 32.768C23.0379 32.0864 22.9323 32.048 21.0219 32.0192L19.3035 31.9904V26.1632C19.3035 20.7776 19.2939 20.3168 19.1307 20.0864C18.6507 19.376 15.7899 16.0544 15.6171 16.0064C15.3675 15.9488 11.9115 17.3408 11.7483 17.5712C11.4699 17.936 11.7483 18.464 12.2091 18.464C12.3627 18.464 13.1019 18.224 13.8411 17.9168C14.7531 17.5616 15.2427 17.408 15.3291 17.4656C15.3963 17.5136 16.0395 18.2624 16.7499 19.1168L18.0555 20.6912V26.3456V32.0096L16.0299 31.9808L14.0043 31.952L13.7739 31.6832C13.5627 31.4432 13.5435 31.328 13.5435 30.4832C13.5339 28.8512 13.1691 27.4304 12.4395 26.2304C12.2475 25.9232 11.6619 25.2032 11.1243 24.6368C9.06995 22.4576 8.14835 20.8064 7.63955 18.416C7.40915 17.3696 7.40915 15.2384 7.63955 14.192C8.12915 11.8784 9.23315 9.88159 10.9131 8.23999C12.7947 6.39679 15.1851 5.32159 17.8347 5.12959C19.0443 5.04319 19.2363 4.95679 19.2363 4.45758C19.2363 3.94879 19.0923 3.87199 18.1131 3.88159C17.6331 3.88159 16.9131 3.94879 16.5099 4.02559ZM22.4619 33.3824C22.5483 33.488 22.5579 33.5744 22.4715 33.7184C22.3659 33.92 22.3275 33.92 18.6603 33.9008C15.3291 33.872 14.9451 33.8528 14.8587 33.7088C14.7819 33.5936 14.7915 33.5072 14.8779 33.4016C14.9931 33.2672 15.4443 33.248 18.6795 33.248C21.7515 33.248 22.3659 33.2672 22.4619 33.3824ZM22.4619 35.3024C22.5483 35.408 22.5579 35.4944 22.4715 35.6384C22.3659 35.84 22.3275 35.84 18.6603 35.8208C15.3291 35.792 14.9451 35.7728 14.8587 35.6288C14.7819 35.5136 14.7915 35.4272 14.8779 35.3216C14.9931 35.1872 15.4443 35.168 18.6795 35.168C21.7515 35.168 22.3659 35.1872 22.4619 35.3024ZM21.2235 37.5584C21.2235 37.9616 21.1851 38.0672 20.9643 38.24C20.7147 38.432 20.6283 38.4416 18.5643 38.4128C16.1163 38.384 16.1355 38.384 16.0587 37.5776L16.0107 37.088H18.6219H21.2235V37.5584Z" fill="#CA1119"/>
<path d="M22.6923 4.36113C22.0779 4.46673 21.4827 4.73553 21.0027 5.12913L20.6475 5.42673L20.6667 17.2923L20.6955 29.1579L20.9931 29.3307C21.5403 29.6475 22.6251 29.8203 23.3259 29.6955C24.0459 29.5707 24.3627 29.4171 24.8523 28.9755L25.2171 28.6587L25.8315 28.8027C27.4539 29.1771 29.2971 28.2363 30.0363 26.6427C30.2667 26.1627 30.2955 25.9707 30.3051 25.0683C30.3147 24.0507 30.3147 24.0315 30.6315 23.6763C30.8043 23.4843 31.0827 23.0331 31.2459 22.6875C31.4955 22.1595 31.5531 21.9291 31.5723 21.1995C31.5915 20.7195 31.5627 20.2299 31.5147 20.0955C31.4379 19.8843 31.4955 19.7979 32.1771 19.1547C32.7627 18.6075 33.0123 18.2811 33.3099 17.6955C34.6251 15.0555 33.5115 12.0891 30.8235 11.1003L30.2955 10.8987L30.2283 10.2459C30.1227 9.14193 29.6043 8.22993 28.7307 7.64433C28.1931 7.26993 27.1947 7.00113 26.6955 7.07793L26.3403 7.13553L26.2731 6.67473C26.0619 5.10993 24.4491 4.06353 22.6923 4.36113ZM24.3339 5.79153C24.7467 6.04113 25.0635 6.67473 25.0635 7.23153C25.0635 7.57713 25.0059 7.70193 24.6891 8.04753C24.1035 8.68113 23.8827 9.18993 23.8347 10.0155C23.7867 10.8603 23.9019 11.3403 24.2859 11.9547C24.7563 12.6939 25.1883 12.8571 25.5915 12.4539C25.8219 12.2235 25.7643 11.8971 25.3995 11.3595C25.1019 10.9179 25.0635 10.7835 25.0635 10.2651C25.0635 9.17073 25.8219 8.38353 26.8683 8.38353C27.5211 8.38353 28.2891 8.78673 28.6635 9.32433C28.9419 9.72753 28.9515 9.79473 28.9515 10.7355C28.9515 11.8779 29.0091 11.9931 29.6523 12.0891C31.1499 12.3099 32.1675 13.2219 32.5227 14.6715C32.6571 15.2283 32.6667 15.4203 32.5707 15.9867C32.3883 17.0235 31.7931 18.0027 31.0059 18.5691L30.7275 18.7611L30.1035 18.4539C28.7883 17.8107 27.2811 18.0123 26.2443 18.9819C25.8987 19.2987 25.8507 19.5579 26.0811 19.8843C26.2827 20.1819 26.6859 20.1531 27.1179 19.8171C27.6075 19.4235 28.0491 19.2987 28.7691 19.3467C29.9115 19.4139 30.5259 20.1339 30.4011 21.2667C30.3243 21.9675 30.0267 22.5339 29.4315 23.1003C28.8939 23.6091 28.8843 23.6379 28.9515 23.9931C28.9899 24.2043 29.0283 24.7131 29.0379 25.1451C29.0475 25.8459 29.0187 25.9611 28.7595 26.3931C28.2027 27.2859 27.0987 27.7851 26.1195 27.5739L25.6395 27.4683V26.7291C25.6395 26.1243 25.5915 25.8939 25.3899 25.4907C24.9675 24.6363 24.1035 24.0891 23.2683 24.1467C22.8843 24.1755 22.7883 24.2139 22.6635 24.4347C22.5387 24.6747 22.5387 24.7323 22.6635 24.9627C22.7595 25.1259 22.9323 25.2603 23.1435 25.3083C24.1515 25.5675 24.3915 25.8651 24.3915 26.8731C24.3915 27.6699 24.1707 28.0635 23.5467 28.3611C23.2107 28.5243 23.0187 28.5531 22.6059 28.5147C22.3275 28.4859 22.0491 28.4379 21.9915 28.3995C21.9243 28.3611 21.8955 24.6843 21.8955 17.1195V5.90673L22.3083 5.75313C22.5291 5.67633 22.7787 5.58993 22.8555 5.56113C23.1435 5.45553 24.0171 5.58993 24.3339 5.79153Z" fill="#CA1119"/>
<path d="M1.59152 6.45418C0.746716 6.66538 0.103516 7.50058 0.103516 8.38378C0.113116 9.05578 0.833116 9.91978 1.55312 10.1118C3.09872 10.5342 4.43312 8.84458 3.70352 7.41418C3.50192 7.03978 2.94512 6.57898 2.53232 6.47338C2.12912 6.35818 2.01392 6.35818 1.59152 6.45418ZM2.44592 7.81738C2.60912 7.94218 2.69552 8.10538 2.69552 8.28778C2.69552 8.59498 2.32112 8.95978 2.00432 8.95978C1.76432 8.95978 1.35152 8.53738 1.35152 8.28778C1.35152 8.03818 1.76432 7.61578 2.00432 7.61578C2.10992 7.61578 2.30192 7.70218 2.44592 7.81738Z" fill="#CA1119"/>
<path d="M14.2637 7.41445C13.0925 7.97125 12.6797 8.29765 12.6797 8.66245C12.6797 8.96965 12.9389 9.24805 13.2173 9.24805C13.3997 9.24805 15.5597 8.20165 15.8189 7.98085C16.0301 7.80805 15.9725 7.35685 15.6941 7.14565C15.5501 7.03045 15.3869 6.94405 15.3293 6.94405C15.2717 6.94405 14.7917 7.15525 14.2637 7.41445Z" fill="#CA1119"/>
<path d="M10.9319 9.93956C10.3559 10.5636 9.40552 12.1476 9.18472 12.858C9.10792 13.1076 9.45352 13.5684 9.71272 13.5684C10.0679 13.5684 10.2599 13.386 10.5479 12.7524C10.8647 12.0804 11.2871 11.4276 11.7863 10.842C12.1415 10.41 12.1991 10.0356 11.9303 9.79556C11.6423 9.53636 11.2679 9.59396 10.9319 9.93956Z" fill="#CA1119"/>
<path d="M0.352851 16.199C0.0552509 16.487 0.0360509 16.7654 0.295251 17.0246C0.688851 17.4182 1.35125 17.159 1.35125 16.631C1.35125 16.3142 1.16885 16.0934 0.852051 16.0166C0.650451 15.9686 0.535251 16.007 0.352851 16.199Z" fill="#CA1119"/>
</svg>
