<svg width="33" height="33" viewBox="0 0 33 33" fill="none" xmlns="http://www.w3.org/2000/svg">
<g clip-path="url(#clip0_15_243)">
<path d="M6.95449 0.180473C6.37441 0.483402 6.12949 0.953911 6.12305 1.78535V2.17852L4.85332 2.2043C3.73828 2.22363 3.53203 2.24942 3.23555 2.36543C2.56523 2.63614 2.01094 3.19688 1.7918 3.82207C1.68867 4.13789 1.68223 4.76309 1.67578 14.9596C1.67578 25.1689 1.68223 25.7684 1.7918 25.865C1.99805 26.052 2.22363 26.0648 2.42344 25.8908L2.61035 25.7297L2.62969 17.8922L2.64258 10.0547H14.373C26.0197 10.0547 26.1035 10.0547 26.2324 9.92578C26.3936 9.76465 26.4 9.46817 26.2389 9.27481L26.1164 9.12012L14.3795 9.10078L2.64258 9.08789V6.68379C2.64258 3.97032 2.64258 3.96387 3.15176 3.53203C3.51914 3.21621 3.81562 3.15821 5.04668 3.15821H6.11016L6.13594 4.07344C6.15527 4.87266 6.17461 5.03379 6.29707 5.26582C6.54844 5.72989 7.07051 6.0586 7.5668 6.0586C7.81816 6.0586 7.96641 5.96192 8.04375 5.74277C8.15977 5.41406 7.97285 5.20137 7.44434 5.04668C7.1543 4.96289 7.08984 4.76953 7.08984 3.91231V3.15821H15.4043H23.7188V4.04121C23.7188 4.76309 23.7445 4.97578 23.8412 5.18848C24.1699 5.90391 25.0916 6.29707 25.4912 5.89746C25.5814 5.81367 25.6523 5.66543 25.6523 5.5752C25.6523 5.3625 25.3881 5.0918 25.1818 5.0918C25.098 5.0918 24.9498 5.03379 24.8531 4.95645C24.6855 4.82754 24.6855 4.81465 24.6855 3.98965V3.15821H26.8512C28.2111 3.15821 29.1135 3.18399 29.2939 3.2291C29.6484 3.31934 30.0803 3.68028 30.235 4.02188C30.3445 4.26035 30.3574 4.49239 30.3574 6.68379V9.08145L28.9975 9.10078L27.6375 9.12012L27.4828 9.30059C27.2959 9.51973 27.2895 9.66153 27.4635 9.88711L27.5924 10.0547H28.9781H30.3574V16.4678C30.3574 23.4545 30.3768 23.0484 29.99 23.4029C29.6742 23.693 29.4937 23.7188 27.515 23.7188C25.7748 23.7188 25.633 23.7252 25.285 23.8541C24.8467 24.0217 24.3955 24.4471 24.1699 24.9111C24.0152 25.227 24.0088 25.2721 23.9766 27.2959C23.9572 28.7396 23.9186 29.3971 23.867 29.4938C23.7316 29.7258 23.3449 30.0287 23.1258 30.0674C23.0098 30.0867 18.5754 30.0932 13.2773 30.0867L3.6416 30.0674L3.33867 29.8869C3.13887 29.7709 2.97129 29.6033 2.85527 29.4035C2.6877 29.1199 2.6748 29.0426 2.64258 28.1789C2.61035 27.3023 2.60391 27.2443 2.45566 27.1283C2.2623 26.9672 1.96582 26.9736 1.80469 27.1348C1.68223 27.2572 1.67578 27.3475 1.67578 29.1199C1.67578 31.1889 1.70801 31.3951 2.08184 31.9494C2.37187 32.3684 2.84883 32.7164 3.34512 32.8711C3.74473 33 3.97031 33 16.5 33C29.0297 33 29.2553 33 29.6549 32.8711C30.1512 32.7164 30.6281 32.3684 30.9182 31.9494C31.3564 31.3049 31.3242 32.3748 31.3242 17.5957C31.3242 2.6877 31.3629 3.86719 30.873 3.20977C30.5959 2.84239 30.048 2.43633 29.6613 2.31387C29.526 2.26875 28.8686 2.22363 28.1531 2.21074L26.877 2.17852V1.78535C26.877 1.56621 26.8447 1.26973 26.8125 1.13438C26.5611 0.0515671 25.0658 -0.386715 24.2215 0.373833C23.8412 0.715431 23.7188 1.01836 23.7188 1.65645V2.19141H16.5H9.28125V1.65645C9.28125 1.01836 9.15879 0.715431 8.77852 0.373833C8.30801 -0.0515594 7.54746 -0.128902 6.95449 0.180473ZM8.14687 1.10215C8.30156 1.22461 8.31445 1.26973 8.31445 1.71446V2.19141H7.70215H7.08984V1.80469C7.08984 1.41153 7.20586 1.06993 7.36055 1.01192C7.57324 0.928127 7.9793 0.973244 8.14687 1.10215ZM25.6588 1.05059C25.8393 1.18594 25.9102 1.39864 25.9102 1.79824V2.19141H25.2979H24.6855V1.71446C24.6855 1.26973 24.6984 1.22461 24.8531 1.10215C25.0465 0.947464 25.4912 0.921684 25.6588 1.05059ZM29.7129 24.6404C29.7129 24.6469 28.6301 25.7361 27.3152 27.0574L24.9111 29.4551L24.9434 27.4377C24.9885 24.5566 24.8209 24.7307 27.5859 24.6855C28.6301 24.6662 29.5389 24.6404 29.6033 24.634C29.6613 24.6275 29.7129 24.6275 29.7129 24.6404ZM30.177 31.2855C30.048 31.5047 29.8869 31.6787 29.6807 31.8076L29.3713 32.001L16.5645 32.0203L3.75762 32.0332L3.40957 31.8527C3.13887 31.7174 3.01641 31.5949 2.85527 31.3242C2.73926 31.1309 2.64258 30.8924 2.64258 30.7893V30.6023L2.85527 30.7313C3.42246 31.0857 2.91328 31.0729 14.025 31.0535L24.2666 31.0342L24.6855 30.8279C25.0529 30.6475 25.4268 30.2994 27.7148 28.0049L30.3252 25.3945L30.3445 28.1725L30.3574 30.9568L30.177 31.2855Z" fill="#CA1119" stroke="#CA1119" stroke-width="0.3"/>
<path d="M15.1983 14.9534C15.0436 15.1146 15.0114 15.1855 15.0501 15.3273C15.1403 15.6946 15.2176 15.7204 16.1393 15.7398L16.9837 15.7591L17.0159 20.1612C17.0481 24.428 17.0546 24.5698 17.1706 24.6601C17.3575 24.7954 17.6862 24.7761 17.828 24.6149C17.944 24.486 17.9505 24.2991 17.9698 19.8067L17.9827 15.1403L17.7958 14.947L17.6089 14.7601H16.5003H15.3917L15.1983 14.9534Z" fill="#CA1119" stroke="#CA1119" stroke-width="0.3"/>
</g>
<defs>
<clipPath id="clip0_15_243">
<rect width="33" height="33" rx="4" fill="white"/>
</clipPath>
</defs>
</svg>
