<svg width="29" height="22" viewBox="0 0 29 22" fill="none" xmlns="http://www.w3.org/2000/svg">
<path d="M2.07292 0.586591C0.628585 0.925653 -0.277665 2.34753 0.084835 3.69831C0.198116 4.10847 0.407687 4.48034 0.69089 4.76472C0.945773 5.01628 13.0102 12.8092 13.452 13.0007C14.126 13.296 14.9247 13.285 15.6157 12.9733C16.1538 12.7272 27.9747 5.08737 28.2749 4.79206C29.6852 3.403 28.9149 1.0405 26.8985 0.581122C26.3661 0.46081 2.59401 0.466278 2.07292 0.586591Z" fill="white"/>
<path d="M0 12.7715C0 17.2012 0.0169922 19.2301 0.0623047 19.4324C0.271875 20.3949 1.07617 21.1824 2.10137 21.4176C2.63379 21.5379 26.2699 21.5379 26.8646 21.4176C27.8955 21.2098 28.7281 20.4113 28.9377 19.4324C29.0113 19.0988 29.0283 6.38398 28.9547 6.4168C28.932 6.42227 26.1963 8.1832 22.8715 10.327C19.5467 12.4707 16.6467 14.3137 16.4201 14.4176C15.7971 14.7238 15.2646 14.8387 14.5 14.8387C13.7354 14.8387 13.2029 14.7238 12.5799 14.4176C12.3533 14.3137 9.45332 12.4707 6.12852 10.327C2.80371 8.1832 0.0679688 6.42227 0.0453125 6.4168C0.0169922 6.40586 0 9.26602 0 12.7715Z" fill="white"/>
</svg>
