<svg width="17" height="17" viewBox="0 0 17 17" fill="none" xmlns="http://www.w3.org/2000/svg">
<path d="M11.125 8.5C11.125 9.01918 10.971 9.52669 10.6826 9.95837C10.3942 10.3901 9.9842 10.7265 9.50454 10.9252C9.02489 11.1239 8.49709 11.1758 7.98789 11.0746C7.47869 10.9733 7.01096 10.7233 6.64384 10.3562C6.27673 9.98904 6.02672 9.52131 5.92544 9.01211C5.82415 8.50291 5.87614 7.97511 6.07482 7.49546C6.2735 7.0158 6.60995 6.60583 7.04163 6.31739C7.47331 6.02895 7.98082 5.875 8.5 5.875C9.19595 5.8758 9.86317 6.15261 10.3553 6.64472C10.8474 7.13683 11.1242 7.80405 11.125 8.5ZM16.7031 4.89062V12.1094C16.7017 13.3273 16.2173 14.4949 15.3561 15.3561C14.4949 16.2173 13.3273 16.7017 12.1094 16.7031H4.89062C3.67271 16.7017 2.50507 16.2173 1.64388 15.3561C0.78268 14.4949 0.298254 13.3273 0.296875 12.1094V4.89062C0.298254 3.67271 0.78268 2.50507 1.64388 1.64388C2.50507 0.78268 3.67271 0.298254 4.89062 0.296875H12.1094C13.3273 0.298254 14.4949 0.78268 15.3561 1.64388C16.2173 2.50507 16.7017 3.67271 16.7031 4.89062ZM12.4375 8.5C12.4375 7.72124 12.2066 6.95996 11.7739 6.31244C11.3413 5.66492 10.7263 5.16024 10.0068 4.86222C9.28733 4.5642 8.49563 4.48623 7.73183 4.63816C6.96803 4.79009 6.26644 5.1651 5.71577 5.71577C5.1651 6.26644 4.79009 6.96803 4.63816 7.73183C4.48623 8.49563 4.5642 9.28733 4.86222 10.0068C5.16024 10.7263 5.66492 11.3413 6.31244 11.7739C6.95996 12.2066 7.72124 12.4375 8.5 12.4375C9.54393 12.4363 10.5448 12.0211 11.2829 11.2829C12.0211 10.5448 12.4363 9.54393 12.4375 8.5ZM13.75 4.23438C13.75 4.03968 13.6923 3.84937 13.5841 3.68749C13.4759 3.52561 13.3222 3.39944 13.1423 3.32493C12.9625 3.25043 12.7645 3.23093 12.5736 3.26891C12.3826 3.3069 12.2072 3.40065 12.0696 3.53832C11.9319 3.67598 11.8381 3.85138 11.8002 4.04233C11.7622 4.23328 11.7817 4.43121 11.8562 4.61108C11.9307 4.79095 12.0569 4.94469 12.2187 5.05285C12.3806 5.16102 12.5709 5.21875 12.7656 5.21875C13.0267 5.21875 13.2771 5.11504 13.4617 4.93043C13.6463 4.74583 13.75 4.49545 13.75 4.23438Z" fill="white"/>
</svg>
