<svg width="20" height="20" viewBox="0 0 20 20" fill="none" xmlns="http://www.w3.org/2000/svg">
<path d="M19.1626 19.4218V12.7156C19.1626 9.43533 18.465 6.90878 14.6783 6.90878C13.9677 6.88313 13.2635 7.05311 12.6407 7.40061C12.018 7.7481 11.4999 8.26012 11.1418 8.88212H11.0895V7.21137H7.49805V19.4172H11.2371V13.3774C11.2371 11.7865 11.535 10.2475 13.4811 10.2475C15.3988 10.2475 15.4272 12.064 15.4272 13.4795V19.4199L19.1626 19.4218Z" fill="white"/>
<path d="M1.13477 7.21484H4.87477V19.4206H1.13477V7.21484Z" fill="white"/>
<path d="M3.0016 0.857441C2.57002 0.855607 2.14763 0.983648 1.78803 1.22531C1.42844 1.46698 1.14787 1.81138 0.98191 2.21479C0.815955 2.6182 0.772105 3.06245 0.855926 3.49114C0.939747 3.91984 1.14746 4.31365 1.4527 4.6226C1.75794 4.93155 2.14695 5.14171 2.57035 5.2264C2.99376 5.3111 3.43247 5.26651 3.8308 5.09829C4.22913 4.93008 4.56913 4.64583 4.80764 4.28161C5.04615 3.91739 5.17243 3.48964 5.17043 3.05263C5.17019 2.47034 4.94158 1.91199 4.53487 1.50034C4.12816 1.08869 3.57665 0.857441 3.0016 0.857441Z" fill="white"/>
</svg>
