<svg width="28" height="28" viewBox="0 0 28 28" fill="none" xmlns="http://www.w3.org/2000/svg">
<path d="M27.7024 20.9364C27.4586 22.789 26.5488 24.4895 25.1429 25.7203C23.7369 26.9511 21.9311 27.6281 20.0625 27.6247C9.20704 27.6247 0.375012 18.7927 0.375012 7.93722C0.371663 6.06868 1.04861 4.2628 2.27941 2.85688C3.51022 1.45097 5.21071 0.541158 7.06329 0.29738C7.53176 0.240178 8.00617 0.336019 8.4157 0.570596C8.82522 0.805174 9.1479 1.16591 9.33556 1.59894L12.2231 8.04523V8.06164C12.3667 8.39312 12.4261 8.75502 12.3958 9.11502C12.3655 9.47503 12.2465 9.82192 12.0494 10.1247C12.0248 10.1616 11.9988 10.1958 11.9715 10.23L9.12501 13.6042C10.149 15.6851 12.3256 17.8425 14.4338 18.8693L17.7615 16.0378C17.7942 16.0103 17.8285 15.9848 17.8641 15.9612C18.1666 15.7595 18.5147 15.6363 18.8768 15.6029C19.239 15.5694 19.6037 15.6268 19.9381 15.7698L19.9559 15.778L26.3967 18.6642C26.8305 18.8512 27.1921 19.1736 27.4275 19.5831C27.6628 19.9927 27.7592 20.4675 27.7024 20.9364Z" fill="white"/>
</svg>
