<svg width="20" height="20" viewBox="0 0 20 20" fill="none" xmlns="http://www.w3.org/2000/svg">
<path d="M19.5308 18.4686L14.8368 13.7755C16.1973 12.1421 16.8757 10.047 16.7309 7.92618C16.5861 5.80531 15.6293 3.82191 14.0593 2.38859C12.4894 0.955257 10.4274 0.18235 8.30213 0.23065C6.17687 0.27895 4.15205 1.14474 2.64888 2.64791C1.14571 4.15108 0.279927 6.1759 0.231627 8.30115C0.183327 10.4264 0.956234 12.4885 2.38956 14.0584C3.82289 15.6283 5.80629 16.5852 7.92715 16.73C10.048 16.8748 12.1431 16.1963 13.7765 14.8358L18.4696 19.5299C18.5393 19.5995 18.622 19.6548 18.713 19.6925C18.8041 19.7302 18.9017 19.7497 19.0002 19.7497C19.0988 19.7497 19.1963 19.7302 19.2874 19.6925C19.3784 19.6548 19.4612 19.5995 19.5308 19.5299C19.6005 19.4602 19.6558 19.3775 19.6935 19.2864C19.7312 19.1954 19.7506 19.0978 19.7506 18.9992C19.7506 18.9007 19.7312 18.8031 19.6935 18.7121C19.6558 18.621 19.6005 18.5383 19.5308 18.4686ZM1.75021 8.49924C1.75021 7.16421 2.14609 5.85917 2.88779 4.74914C3.62949 3.63911 4.6837 2.77394 5.9171 2.26305C7.1505 1.75216 8.5077 1.61849 9.81707 1.87894C11.1264 2.13939 12.3292 2.78226 13.2732 3.72627C14.2172 4.67027 14.8601 5.87301 15.1205 7.18238C15.381 8.49175 15.2473 9.84895 14.7364 11.0824C14.2255 12.3158 13.3603 13.37 12.2503 14.1117C11.1403 14.8534 9.83524 15.2492 8.50021 15.2492C6.71061 15.2473 4.99488 14.5355 3.72944 13.27C2.464 12.0046 1.7522 10.2888 1.75021 8.49924Z" fill="black"/>
</svg>
