<svg width="39" height="39" viewBox="0 0 39 39" fill="none" xmlns="http://www.w3.org/2000/svg">
<g clip-path="url(#clip0_15_264)">
<path d="M28.0309 8.22656C27.6652 8.22656 27.4215 7.98281 27.4215 7.61719V3.35156C27.4215 2.86406 26.9949 2.4375 26.4465 2.4375H25.3496C24.8012 2.4375 24.4355 2.86406 24.4355 3.4125C24.4355 3.77813 24.1918 4.02187 23.8262 4.02187C23.4605 4.02187 23.2168 3.77813 23.2168 3.4125C23.2168 2.19375 24.1309 1.21875 25.3496 1.21875H26.4465C27.6652 1.21875 28.6402 2.19375 28.6402 3.35156V7.61719C28.6402 7.98281 28.3965 8.22656 28.0309 8.22656Z" fill="#CA1119"/>
<path d="M16.818 31.5039H1.64453C1.27891 31.5039 1.03516 31.2602 1.03516 30.8945C1.03516 30.5289 1.27891 30.2852 1.64453 30.2852H16.818C17.1836 30.2852 17.4273 30.5289 17.4273 30.8945C17.4273 31.2602 17.1836 31.5039 16.818 31.5039Z" fill="#CA1119"/>
<path d="M3.47266 31.5039C3.10703 31.5039 2.86328 31.2602 2.86328 30.8945V19.0117C2.86328 18.6461 3.10703 18.4023 3.47266 18.4023C3.83828 18.4023 4.08203 18.6461 4.08203 19.0117V30.8945C4.08203 31.2602 3.83828 31.5039 3.47266 31.5039Z" fill="#CA1119"/>
<path d="M30.0418 17.3672C29.4934 17.3672 28.9449 17.1234 28.5184 16.7578L16.0871 4.3875L3.7168 16.7578C2.92461 17.55 1.46211 17.55 0.669922 16.7578C0.243359 16.3312 0.0605469 15.7828 0.0605469 15.2344C0.0605469 14.6859 0.304297 14.1375 0.669922 13.7109L13.1012 1.21875C13.8934 0.426563 14.9293 0 16.0871 0C17.2449 0 18.2809 0.426563 19.073 1.21875L31.5652 13.7109C31.9918 14.1375 32.1746 14.6859 32.1746 15.2344C32.1746 15.7828 31.9309 16.3312 31.5652 16.7578C31.1996 17.1844 30.5902 17.3672 30.0418 17.3672ZM16.0871 3.16875C16.3918 3.16875 16.6965 3.29062 16.8793 3.47344L29.3715 15.9047C29.7371 16.2703 30.3465 16.2703 30.7121 15.9047C31.0777 15.5391 31.0777 14.9297 30.7121 14.5641L18.2199 2.07188C17.6715 1.52344 16.8793 1.21875 16.0871 1.21875C15.2949 1.21875 14.5027 1.52344 13.9543 2.07188L1.52305 14.5641C1.15742 14.9297 1.15742 15.5391 1.52305 15.9047C1.88867 16.2703 2.49805 16.2703 2.86367 15.9047L15.2949 3.47344C15.4777 3.29062 15.7824 3.16875 16.0871 3.16875Z" fill="#CA1119"/>
<path d="M16.8188 31.5051H11.2734C10.9078 31.5051 10.6641 31.2613 10.6641 30.8957V20.841C10.6641 19.3785 11.8219 18.2207 13.2844 18.2207H17.8547C18.2203 18.2207 18.4641 18.4645 18.4641 18.8301C18.4641 19.1957 18.2203 19.4395 17.8547 19.4395H13.2844C12.5531 19.4395 11.8828 20.1098 11.8828 20.841V30.2863H16.8188C17.1844 30.2863 17.4281 30.5301 17.4281 30.8957C17.4281 31.2613 17.1844 31.5051 16.8188 31.5051Z" fill="#CA1119"/>
<path d="M31.6871 34.368C31.5043 34.368 31.3824 34.307 31.2605 34.1852L29.4934 32.418C29.3715 32.2961 29.3105 32.1133 29.3105 31.9305C29.3105 31.7477 29.4324 31.5648 29.6152 31.5039C29.9809 31.3211 30.2855 30.9555 30.5902 30.7117C30.9559 30.3461 31.1996 30.0414 31.3824 29.6758C31.5043 29.493 31.6262 29.3711 31.809 29.3711C31.9918 29.3711 32.1746 29.432 32.2965 29.5539L34.1246 31.3211C34.2465 31.443 34.3074 31.5648 34.3074 31.7477C34.3074 31.9305 34.2465 32.0523 34.1246 32.1742L32.0527 34.2461C31.9918 34.307 31.8699 34.368 31.6871 34.368ZM30.834 32.0523L31.6871 32.9055L32.9059 31.6867L32.0527 30.8336C31.8699 31.0164 31.6871 31.2602 31.4434 31.5039C31.2605 31.6867 31.0777 31.8695 30.834 32.0523Z" fill="#CA1119"/>
<path d="M36.318 39.0008C35.5867 39.0008 34.9164 38.757 34.368 38.2695L31.1383 35.0398C30.7117 34.6133 30.7117 33.882 31.1383 33.4555L33.393 31.2008C33.8195 30.7742 34.6117 30.7742 34.9773 31.2008L38.207 34.4305C39.243 35.5273 39.243 37.1727 38.207 38.2695C37.7195 38.6961 37.0492 39.0008 36.318 39.0008ZM32.0523 34.1867L35.2211 37.3555C35.7695 37.9039 36.8055 37.9039 37.3539 37.3555C37.9023 36.7461 37.9023 35.832 37.3539 35.2227L34.1852 32.0539L32.0523 34.1867Z" fill="#CA1119"/>
<path d="M25.5324 33.9418C20.9012 33.9418 17.123 30.1637 17.123 25.5324C17.123 20.9012 20.9012 17.123 25.5324 17.123C30.1637 17.123 33.9418 20.9012 33.9418 25.5324C33.9418 30.1637 30.1637 33.9418 25.5324 33.9418ZM25.5324 18.3418C21.5715 18.3418 18.3418 21.5715 18.3418 25.5324C18.3418 29.4934 21.5715 32.723 25.5324 32.723C29.4934 32.723 32.723 29.4934 32.723 25.5324C32.723 21.5715 29.4934 18.3418 25.5324 18.3418Z" fill="#CA1119"/>
</g>
<defs>
<clipPath id="clip0_15_264">
<rect width="39" height="39" fill="white"/>
</clipPath>
</defs>
</svg>
