<svg width="20" height="17" viewBox="0 0 20 17" fill="none" xmlns="http://www.w3.org/2000/svg">
<path d="M19.8211 2.64909C19.1081 2.95916 18.3551 3.16503 17.5847 3.26051C18.3924 2.7836 18.9987 2.02264 19.2883 1.12246C18.5261 1.57276 17.6941 1.88932 16.8276 2.05876C16.4619 1.67162 16.0225 1.36352 15.536 1.15302C15.0495 0.942525 14.5259 0.834003 13.9968 0.834005C13.4179 0.832091 12.846 0.961932 12.3234 1.21393C11.8007 1.46593 11.3406 1.83364 10.9772 2.28989C10.6137 2.74613 10.3562 3.27926 10.2236 3.84984C10.091 4.42043 10.0867 5.0139 10.2111 5.58638C8.67293 5.51386 7.16674 5.11634 5.7893 4.41937C4.41185 3.7224 3.19361 2.74138 2.21285 1.53934C1.71269 2.39079 1.5575 3.40525 1.77981 4.37002C2.00213 5.3348 2.58469 6.17495 3.40535 6.71434C2.79156 6.69736 2.19052 6.53314 1.65161 6.23517V6.27734C1.65777 7.17676 1.97058 8.04641 2.53711 8.73916C3.10364 9.43191 3.88911 9.90523 4.76063 10.079C4.42844 10.1663 4.0864 10.2092 3.74322 10.2065C3.49679 10.2108 3.2506 10.1887 3.00879 10.1404C3.26577 10.9128 3.75189 11.5861 4.40079 12.0684C5.0497 12.5507 5.82978 12.8185 6.63456 12.8352C5.25411 13.9085 3.56144 14.4884 1.82102 14.4845C1.51074 14.4864 1.20064 14.4685 0.892578 14.4308C2.67277 15.5727 4.73833 16.1752 6.84561 16.1673C8.28744 16.1889 9.71913 15.9202 11.0575 15.3767C12.3959 14.8333 13.6143 14.0259 14.6419 13.0016C15.6695 11.9773 16.4859 10.7564 17.0435 9.40992C17.6012 8.06342 17.8891 6.61813 17.8904 5.15801C17.8904 4.98742 17.8848 4.82163 17.8762 4.65776C18.6398 4.11355 19.2989 3.43285 19.8211 2.64909V2.64909Z" fill="white"/>
</svg>
