<svg width="32" height="32" viewBox="0 0 32 32" fill="none" xmlns="http://www.w3.org/2000/svg">
<path d="M14.8434 0.0381966C12.4309 0.269445 10.6121 0.794447 8.63711 1.8132C5.62461 3.3757 3.19336 5.85695 1.68711 8.90695C1.10586 10.0757 0.837109 10.7944 0.530859 11.9444C0.155859 13.3944 0.0433594 14.2757 0.0371094 15.8757C0.0371094 16.6757 0.0683594 17.5382 0.112109 17.8757C0.455859 20.4382 1.25586 22.6444 2.59961 24.7069L3.04961 25.4007L2.05586 28.3319C1.50586 29.9507 1.06836 31.2757 1.08086 31.2882C1.09336 31.3007 2.45586 30.8757 4.11836 30.3444C5.78086 29.8132 7.16211 29.3757 7.19336 29.3757C7.21836 29.3757 7.47461 29.5194 7.76211 29.7007C8.04961 29.8757 8.64961 30.2007 9.09336 30.4132C13.1371 32.3444 17.7559 32.5132 21.8934 30.8694C26.5809 29.0132 30.1809 24.9444 31.4684 20.0569C31.8621 18.5569 31.9559 17.7382 31.9559 16.0007C31.9559 14.2632 31.8621 13.4444 31.4684 11.9444C29.9559 6.2132 25.3621 1.75695 19.5621 0.400696C18.5871 0.175695 17.5746 0.0569458 16.3434 0.0381966C15.6559 0.0256958 14.9809 0.0256958 14.8434 0.0381966ZM11.0309 7.4507C11.1371 7.50694 11.2809 7.65694 11.3559 7.79445C11.5371 8.12569 13.0621 11.7819 13.1059 12.0069C13.1621 12.2882 12.8809 12.7694 12.2621 13.4694C11.6121 14.2007 11.4746 14.4319 11.5309 14.6944C11.6371 15.1694 13.0809 17.0882 13.9746 17.9319C15.3559 19.2382 17.4434 20.4819 18.3746 20.5507C18.8559 20.5819 19.0246 20.4507 19.7621 19.4757C20.0934 19.0319 20.4434 18.5882 20.5496 18.4882C20.7871 18.2444 21.1434 18.1944 21.5496 18.3444C22.0621 18.5382 25.2059 20.0694 25.4309 20.2382L25.6434 20.3944L25.6059 21.0569C25.5184 22.7569 24.9184 23.6382 23.3434 24.4069C21.8434 25.1382 20.6684 25.1194 18.3746 24.3257C15.2871 23.2569 13.6559 22.2382 11.4371 20.0069C10.3246 18.8944 9.53711 17.9507 8.63711 16.6569C7.14961 14.5319 6.58086 12.8882 6.74961 11.2194C6.88711 9.88194 7.35586 8.89445 8.29961 7.9507C8.75586 7.49445 9.34961 7.30695 10.2496 7.3382C10.6309 7.35069 10.9121 7.3882 11.0309 7.4507Z" fill="white"/>
</svg>
